<svg xmlns="http://www.w3.org/2000/svg" width="1280" height="310" viewBox="0 0 1280 310" role="img" aria-labelledby="calendar-title">
<title id="calendar-title">Contribution calendar of magnoscg from 2025-09-12 to 2026-09-11, private repositories included: 3,016 contributions across 161 active days</title>
<style>
text { font-family: -apple-system, BlinkMacSystemFont, "Segoe UI", Helvetica, Arial, sans-serif; fill: #ffffff; }
.eyebrow, .caption, .axis { font-family: ui-monospace, SFMono-Regular, Menlo, monospace; fill: #8b949e; }
.eyebrow { font-size: 13px; letter-spacing: 0.08em; }
.caption { font-size: 12px; }
.axis { font-size: 11px; }
</style>
<rect width="1280" height="310" fill="#0a0a0a"/>
<circle cx="136" cy="53" r="3.5" fill="#39d353"/>
<text x="148" y="58" class="eyebrow">CONTRIBUTION CALENDAR · 2025-09-12 TO 2026-09-11 · PRIVATE REPOSITORIES INCLUDED</text>
<text x="240.0" y="102" class="axis">Oct</text>
<text x="314.0" y="102" class="axis">Nov</text>
<text x="406.5" y="102" class="axis">Dec</text>
<text x="480.5" y="102" class="axis">Jan</text>
<text x="554.5" y="102" class="axis">Feb</text>
<text x="628.5" y="102" class="axis">Mar</text>
<text x="721.0" y="102" class="axis">Apr</text>
<text x="795.0" y="102" class="axis">May</text>
<text x="887.5" y="102" class="axis">Jun</text>
<text x="961.5" y="102" class="axis">Jul</text>
<text x="1035.5" y="102" class="axis">Aug</text>
<text x="1128.0" y="102" class="axis">Sep</text>
<text x="132" y="142.0" class="axis">Mon</text>
<text x="132" y="179.0" class="axis">Wed</text>
<text x="132" y="216.0" class="axis">Fri</text>
<rect x="166.0" y="204.5" width="15" height="15" rx="3" fill="#161b22"/><rect x="166.0" y="223.0" width="15" height="15" rx="3" fill="#161b22"/>
<rect x="184.5" y="112.0" width="15" height="15" rx="3" fill="#161b22"/><rect x="184.5" y="130.5" width="15" height="15" rx="3" fill="#161b22"/><rect x="184.5" y="149.0" width="15" height="15" rx="3" fill="#161b22"/><rect x="184.5" y="167.5" width="15" height="15" rx="3" fill="#161b22"/><rect x="184.5" y="186.0" width="15" height="15" rx="3" fill="#161b22"/><rect x="184.5" y="204.5" width="15" height="15" rx="3" fill="#161b22"/><rect x="184.5" y="223.0" width="15" height="15" rx="3" fill="#161b22"/>
<rect x="203.0" y="112.0" width="15" height="15" rx="3" fill="#161b22"/><rect x="203.0" y="130.5" width="15" height="15" rx="3" fill="#161b22"/><rect x="203.0" y="149.0" width="15" height="15" rx="3" fill="#161b22"/><rect x="203.0" y="167.5" width="15" height="15" rx="3" fill="#161b22"/><rect x="203.0" y="186.0" width="15" height="15" rx="3" fill="#161b22"/><rect x="203.0" y="204.5" width="15" height="15" rx="3" fill="#161b22"/><rect x="203.0" y="223.0" width="15" height="15" rx="3" fill="#161b22"/>
<rect x="221.5" y="112.0" width="15" height="15" rx="3" fill="#161b22"/><rect x="221.5" y="130.5" width="15" height="15" rx="3" fill="#161b22"/><rect x="221.5" y="149.0" width="15" height="15" rx="3" fill="#161b22"/><rect x="221.5" y="167.5" width="15" height="15" rx="3" fill="#161b22"/><rect x="221.5" y="186.0" width="15" height="15" rx="3" fill="#161b22"/><rect x="221.5" y="204.5" width="15" height="15" rx="3" fill="#161b22"/><rect x="221.5" y="223.0" width="15" height="15" rx="3" fill="#161b22"/>
<rect x="240.0" y="112.0" width="15" height="15" rx="3" fill="#161b22"/><rect x="240.0" y="130.5" width="15" height="15" rx="3" fill="#161b22"/><rect x="240.0" y="149.0" width="15" height="15" rx="3" fill="#161b22"/><rect x="240.0" y="167.5" width="15" height="15" rx="3" fill="#161b22"/><rect x="240.0" y="186.0" width="15" height="15" rx="3" fill="#161b22"/><rect x="240.0" y="204.5" width="15" height="15" rx="3" fill="#161b22"/><rect x="240.0" y="223.0" width="15" height="15" rx="3" fill="#161b22"/>
<rect x="258.5" y="112.0" width="15" height="15" rx="3" fill="#161b22"/><rect x="258.5" y="130.5" width="15" height="15" rx="3" fill="#161b22"/><rect x="258.5" y="149.0" width="15" height="15" rx="3" fill="#161b22"/><rect x="258.5" y="167.5" width="15" height="15" rx="3" fill="#161b22"/><rect x="258.5" y="186.0" width="15" height="15" rx="3" fill="#161b22"/><rect x="258.5" y="204.5" width="15" height="15" rx="3" fill="#161b22"/><rect x="258.5" y="223.0" width="15" height="15" rx="3" fill="#161b22"/>
<rect x="277.0" y="112.0" width="15" height="15" rx="3" fill="#161b22"/><rect x="277.0" y="130.5" width="15" height="15" rx="3" fill="#161b22"/><rect x="277.0" y="149.0" width="15" height="15" rx="3" fill="#161b22"/><rect x="277.0" y="167.5" width="15" height="15" rx="3" fill="#161b22"/><rect x="277.0" y="186.0" width="15" height="15" rx="3" fill="#161b22"/><rect x="277.0" y="204.5" width="15" height="15" rx="3" fill="#161b22"/><rect x="277.0" y="223.0" width="15" height="15" rx="3" fill="#161b22"/>
<rect x="295.5" y="112.0" width="15" height="15" rx="3" fill="#161b22"/><rect x="295.5" y="130.5" width="15" height="15" rx="3" fill="#161b22"/><rect x="295.5" y="149.0" width="15" height="15" rx="3" fill="#161b22"/><rect x="295.5" y="167.5" width="15" height="15" rx="3" fill="#161b22"/><rect x="295.5" y="186.0" width="15" height="15" rx="3" fill="#161b22"/><rect x="295.5" y="204.5" width="15" height="15" rx="3" fill="#161b22"/><rect x="295.5" y="223.0" width="15" height="15" rx="3" fill="#161b22"/>
<rect x="314.0" y="112.0" width="15" height="15" rx="3" fill="#161b22"/><rect x="314.0" y="130.5" width="15" height="15" rx="3" fill="#161b22"/><rect x="314.0" y="149.0" width="15" height="15" rx="3" fill="#161b22"/><rect x="314.0" y="167.5" width="15" height="15" rx="3" fill="#161b22"/><rect x="314.0" y="186.0" width="15" height="15" rx="3" fill="#161b22"/><rect x="314.0" y="204.5" width="15" height="15" rx="3" fill="#161b22"/><rect x="314.0" y="223.0" width="15" height="15" rx="3" fill="#161b22"/>
<rect x="332.5" y="112.0" width="15" height="15" rx="3" fill="#161b22"/><rect x="332.5" y="130.5" width="15" height="15" rx="3" fill="#161b22"/><rect x="332.5" y="149.0" width="15" height="15" rx="3" fill="#161b22"/><rect x="332.5" y="167.5" width="15" height="15" rx="3" fill="#161b22"/><rect x="332.5" y="186.0" width="15" height="15" rx="3" fill="#161b22"/><rect x="332.5" y="204.5" width="15" height="15" rx="3" fill="#161b22"/><rect x="332.5" y="223.0" width="15" height="15" rx="3" fill="#161b22"/>
<rect x="351.0" y="112.0" width="15" height="15" rx="3" fill="#161b22"/><rect x="351.0" y="130.5" width="15" height="15" rx="3" fill="#161b22"/><rect x="351.0" y="149.0" width="15" height="15" rx="3" fill="#161b22"/><rect x="351.0" y="167.5" width="15" height="15" rx="3" fill="#161b22"/><rect x="351.0" y="186.0" width="15" height="15" rx="3" fill="#161b22"/><rect x="351.0" y="204.5" width="15" height="15" rx="3" fill="#161b22"/><rect x="351.0" y="223.0" width="15" height="15" rx="3" fill="#161b22"/>
<rect x="369.5" y="112.0" width="15" height="15" rx="3" fill="#161b22"/><rect x="369.5" y="130.5" width="15" height="15" rx="3" fill="#161b22"/><rect x="369.5" y="149.0" width="15" height="15" rx="3" fill="#0e4429"/><rect x="369.5" y="167.5" width="15" height="15" rx="3" fill="#0e4429"/><rect x="369.5" y="186.0" width="15" height="15" rx="3" fill="#161b22"/><rect x="369.5" y="204.5" width="15" height="15" rx="3" fill="#161b22"/><rect x="369.5" y="223.0" width="15" height="15" rx="3" fill="#161b22"/>
<rect x="388.0" y="112.0" width="15" height="15" rx="3" fill="#161b22"/><rect x="388.0" y="130.5" width="15" height="15" rx="3" fill="#161b22"/><rect x="388.0" y="149.0" width="15" height="15" rx="3" fill="#161b22"/><rect x="388.0" y="167.5" width="15" height="15" rx="3" fill="#161b22"/><rect x="388.0" y="186.0" width="15" height="15" rx="3" fill="#161b22"/><rect x="388.0" y="204.5" width="15" height="15" rx="3" fill="#161b22"/><rect x="388.0" y="223.0" width="15" height="15" rx="3" fill="#161b22"/>
<rect x="406.5" y="112.0" width="15" height="15" rx="3" fill="#161b22"/><rect x="406.5" y="130.5" width="15" height="15" rx="3" fill="#161b22"/><rect x="406.5" y="149.0" width="15" height="15" rx="3" fill="#161b22"/><rect x="406.5" y="167.5" width="15" height="15" rx="3" fill="#161b22"/><rect x="406.5" y="186.0" width="15" height="15" rx="3" fill="#161b22"/><rect x="406.5" y="204.5" width="15" height="15" rx="3" fill="#161b22"/><rect x="406.5" y="223.0" width="15" height="15" rx="3" fill="#161b22"/>
<rect x="425.0" y="112.0" width="15" height="15" rx="3" fill="#161b22"/><rect x="425.0" y="130.5" width="15" height="15" rx="3" fill="#161b22"/><rect x="425.0" y="149.0" width="15" height="15" rx="3" fill="#161b22"/><rect x="425.0" y="167.5" width="15" height="15" rx="3" fill="#161b22"/><rect x="425.0" y="186.0" width="15" height="15" rx="3" fill="#161b22"/><rect x="425.0" y="204.5" width="15" height="15" rx="3" fill="#161b22"/><rect x="425.0" y="223.0" width="15" height="15" rx="3" fill="#161b22"/>
<rect x="443.5" y="112.0" width="15" height="15" rx="3" fill="#161b22"/><rect x="443.5" y="130.5" width="15" height="15" rx="3" fill="#161b22"/><rect x="443.5" y="149.0" width="15" height="15" rx="3" fill="#161b22"/><rect x="443.5" y="167.5" width="15" height="15" rx="3" fill="#161b22"/><rect x="443.5" y="186.0" width="15" height="15" rx="3" fill="#161b22"/><rect x="443.5" y="204.5" width="15" height="15" rx="3" fill="#161b22"/><rect x="443.5" y="223.0" width="15" height="15" rx="3" fill="#161b22"/>
<rect x="462.0" y="112.0" width="15" height="15" rx="3" fill="#161b22"/><rect x="462.0" y="130.5" width="15" height="15" rx="3" fill="#161b22"/><rect x="462.0" y="149.0" width="15" height="15" rx="3" fill="#161b22"/><rect x="462.0" y="167.5" width="15" height="15" rx="3" fill="#161b22"/><rect x="462.0" y="186.0" width="15" height="15" rx="3" fill="#161b22"/><rect x="462.0" y="204.5" width="15" height="15" rx="3" fill="#0e4429"/><rect x="462.0" y="223.0" width="15" height="15" rx="3" fill="#0e4429"/>
<rect x="480.5" y="112.0" width="15" height="15" rx="3" fill="#161b22"/><rect x="480.5" y="130.5" width="15" height="15" rx="3" fill="#0e4429"/><rect x="480.5" y="149.0" width="15" height="15" rx="3" fill="#0e4429"/><rect x="480.5" y="167.5" width="15" height="15" rx="3" fill="#161b22"/><rect x="480.5" y="186.0" width="15" height="15" rx="3" fill="#161b22"/><rect x="480.5" y="204.5" width="15" height="15" rx="3" fill="#161b22"/><rect x="480.5" y="223.0" width="15" height="15" rx="3" fill="#0e4429"/>
<rect x="499.0" y="112.0" width="15" height="15" rx="3" fill="#0e4429"/><rect x="499.0" y="130.5" width="15" height="15" rx="3" fill="#0e4429"/><rect x="499.0" y="149.0" width="15" height="15" rx="3" fill="#161b22"/><rect x="499.0" y="167.5" width="15" height="15" rx="3" fill="#0e4429"/><rect x="499.0" y="186.0" width="15" height="15" rx="3" fill="#161b22"/><rect x="499.0" y="204.5" width="15" height="15" rx="3" fill="#161b22"/><rect x="499.0" y="223.0" width="15" height="15" rx="3" fill="#161b22"/>
<rect x="517.5" y="112.0" width="15" height="15" rx="3" fill="#161b22"/><rect x="517.5" y="130.5" width="15" height="15" rx="3" fill="#0e4429"/><rect x="517.5" y="149.0" width="15" height="15" rx="3" fill="#161b22"/><rect x="517.5" y="167.5" width="15" height="15" rx="3" fill="#161b22"/><rect x="517.5" y="186.0" width="15" height="15" rx="3" fill="#0e4429"/><rect x="517.5" y="204.5" width="15" height="15" rx="3" fill="#161b22"/><rect x="517.5" y="223.0" width="15" height="15" rx="3" fill="#161b22"/>
<rect x="536.0" y="112.0" width="15" height="15" rx="3" fill="#161b22"/><rect x="536.0" y="130.5" width="15" height="15" rx="3" fill="#161b22"/><rect x="536.0" y="149.0" width="15" height="15" rx="3" fill="#0e4429"/><rect x="536.0" y="167.5" width="15" height="15" rx="3" fill="#0e4429"/><rect x="536.0" y="186.0" width="15" height="15" rx="3" fill="#161b22"/><rect x="536.0" y="204.5" width="15" height="15" rx="3" fill="#0e4429"/><rect x="536.0" y="223.0" width="15" height="15" rx="3" fill="#161b22"/>
<rect x="554.5" y="112.0" width="15" height="15" rx="3" fill="#161b22"/><rect x="554.5" y="130.5" width="15" height="15" rx="3" fill="#0e4429"/><rect x="554.5" y="149.0" width="15" height="15" rx="3" fill="#161b22"/><rect x="554.5" y="167.5" width="15" height="15" rx="3" fill="#161b22"/><rect x="554.5" y="186.0" width="15" height="15" rx="3" fill="#161b22"/><rect x="554.5" y="204.5" width="15" height="15" rx="3" fill="#161b22"/><rect x="554.5" y="223.0" width="15" height="15" rx="3" fill="#161b22"/>
<rect x="573.0" y="112.0" width="15" height="15" rx="3" fill="#161b22"/><rect x="573.0" y="130.5" width="15" height="15" rx="3" fill="#161b22"/><rect x="573.0" y="149.0" width="15" height="15" rx="3" fill="#161b22"/><rect x="573.0" y="167.5" width="15" height="15" rx="3" fill="#161b22"/><rect x="573.0" y="186.0" width="15" height="15" rx="3" fill="#161b22"/><rect x="573.0" y="204.5" width="15" height="15" rx="3" fill="#161b22"/><rect x="573.0" y="223.0" width="15" height="15" rx="3" fill="#161b22"/>
<rect x="591.5" y="112.0" width="15" height="15" rx="3" fill="#161b22"/><rect x="591.5" y="130.5" width="15" height="15" rx="3" fill="#161b22"/><rect x="591.5" y="149.0" width="15" height="15" rx="3" fill="#161b22"/><rect x="591.5" y="167.5" width="15" height="15" rx="3" fill="#161b22"/><rect x="591.5" y="186.0" width="15" height="15" rx="3" fill="#161b22"/><rect x="591.5" y="204.5" width="15" height="15" rx="3" fill="#161b22"/><rect x="591.5" y="223.0" width="15" height="15" rx="3" fill="#161b22"/>
<rect x="610.0" y="112.0" width="15" height="15" rx="3" fill="#161b22"/><rect x="610.0" y="130.5" width="15" height="15" rx="3" fill="#161b22"/><rect x="610.0" y="149.0" width="15" height="15" rx="3" fill="#161b22"/><rect x="610.0" y="167.5" width="15" height="15" rx="3" fill="#161b22"/><rect x="610.0" y="186.0" width="15" height="15" rx="3" fill="#161b22"/><rect x="610.0" y="204.5" width="15" height="15" rx="3" fill="#161b22"/><rect x="610.0" y="223.0" width="15" height="15" rx="3" fill="#161b22"/>
<rect x="628.5" y="112.0" width="15" height="15" rx="3" fill="#161b22"/><rect x="628.5" y="130.5" width="15" height="15" rx="3" fill="#0e4429"/><rect x="628.5" y="149.0" width="15" height="15" rx="3" fill="#161b22"/><rect x="628.5" y="167.5" width="15" height="15" rx="3" fill="#161b22"/><rect x="628.5" y="186.0" width="15" height="15" rx="3" fill="#161b22"/><rect x="628.5" y="204.5" width="15" height="15" rx="3" fill="#161b22"/><rect x="628.5" y="223.0" width="15" height="15" rx="3" fill="#161b22"/>
<rect x="647.0" y="112.0" width="15" height="15" rx="3" fill="#161b22"/><rect x="647.0" y="130.5" width="15" height="15" rx="3" fill="#006d32"/><rect x="647.0" y="149.0" width="15" height="15" rx="3" fill="#006d32"/><rect x="647.0" y="167.5" width="15" height="15" rx="3" fill="#161b22"/><rect x="647.0" y="186.0" width="15" height="15" rx="3" fill="#0e4429"/><rect x="647.0" y="204.5" width="15" height="15" rx="3" fill="#006d32"/><rect x="647.0" y="223.0" width="15" height="15" rx="3" fill="#0e4429"/>
<rect x="665.5" y="112.0" width="15" height="15" rx="3" fill="#26a641"/><rect x="665.5" y="130.5" width="15" height="15" rx="3" fill="#26a641"/><rect x="665.5" y="149.0" width="15" height="15" rx="3" fill="#39d353"/><rect x="665.5" y="167.5" width="15" height="15" rx="3" fill="#0e4429"/><rect x="665.5" y="186.0" width="15" height="15" rx="3" fill="#0e4429"/><rect x="665.5" y="204.5" width="15" height="15" rx="3" fill="#0e4429"/><rect x="665.5" y="223.0" width="15" height="15" rx="3" fill="#006d32"/>
<rect x="684.0" y="112.0" width="15" height="15" rx="3" fill="#161b22"/><rect x="684.0" y="130.5" width="15" height="15" rx="3" fill="#006d32"/><rect x="684.0" y="149.0" width="15" height="15" rx="3" fill="#26a641"/><rect x="684.0" y="167.5" width="15" height="15" rx="3" fill="#26a641"/><rect x="684.0" y="186.0" width="15" height="15" rx="3" fill="#39d353"/><rect x="684.0" y="204.5" width="15" height="15" rx="3" fill="#39d353"/><rect x="684.0" y="223.0" width="15" height="15" rx="3" fill="#26a641"/>
<rect x="702.5" y="112.0" width="15" height="15" rx="3" fill="#26a641"/><rect x="702.5" y="130.5" width="15" height="15" rx="3" fill="#006d32"/><rect x="702.5" y="149.0" width="15" height="15" rx="3" fill="#006d32"/><rect x="702.5" y="167.5" width="15" height="15" rx="3" fill="#161b22"/><rect x="702.5" y="186.0" width="15" height="15" rx="3" fill="#161b22"/><rect x="702.5" y="204.5" width="15" height="15" rx="3" fill="#161b22"/><rect x="702.5" y="223.0" width="15" height="15" rx="3" fill="#006d32"/>
<rect x="721.0" y="112.0" width="15" height="15" rx="3" fill="#006d32"/><rect x="721.0" y="130.5" width="15" height="15" rx="3" fill="#161b22"/><rect x="721.0" y="149.0" width="15" height="15" rx="3" fill="#161b22"/><rect x="721.0" y="167.5" width="15" height="15" rx="3" fill="#161b22"/><rect x="721.0" y="186.0" width="15" height="15" rx="3" fill="#161b22"/><rect x="721.0" y="204.5" width="15" height="15" rx="3" fill="#0e4429"/><rect x="721.0" y="223.0" width="15" height="15" rx="3" fill="#006d32"/>
<rect x="739.5" y="112.0" width="15" height="15" rx="3" fill="#161b22"/><rect x="739.5" y="130.5" width="15" height="15" rx="3" fill="#161b22"/><rect x="739.5" y="149.0" width="15" height="15" rx="3" fill="#161b22"/><rect x="739.5" y="167.5" width="15" height="15" rx="3" fill="#0e4429"/><rect x="739.5" y="186.0" width="15" height="15" rx="3" fill="#161b22"/><rect x="739.5" y="204.5" width="15" height="15" rx="3" fill="#0e4429"/><rect x="739.5" y="223.0" width="15" height="15" rx="3" fill="#006d32"/>
<rect x="758.0" y="112.0" width="15" height="15" rx="3" fill="#39d353"/><rect x="758.0" y="130.5" width="15" height="15" rx="3" fill="#39d353"/><rect x="758.0" y="149.0" width="15" height="15" rx="3" fill="#161b22"/><rect x="758.0" y="167.5" width="15" height="15" rx="3" fill="#161b22"/><rect x="758.0" y="186.0" width="15" height="15" rx="3" fill="#26a641"/><rect x="758.0" y="204.5" width="15" height="15" rx="3" fill="#0e4429"/><rect x="758.0" y="223.0" width="15" height="15" rx="3" fill="#0e4429"/>
<rect x="776.5" y="112.0" width="15" height="15" rx="3" fill="#161b22"/><rect x="776.5" y="130.5" width="15" height="15" rx="3" fill="#26a641"/><rect x="776.5" y="149.0" width="15" height="15" rx="3" fill="#161b22"/><rect x="776.5" y="167.5" width="15" height="15" rx="3" fill="#0e4429"/><rect x="776.5" y="186.0" width="15" height="15" rx="3" fill="#006d32"/><rect x="776.5" y="204.5" width="15" height="15" rx="3" fill="#26a641"/><rect x="776.5" y="223.0" width="15" height="15" rx="3" fill="#39d353"/>
<rect x="795.0" y="112.0" width="15" height="15" rx="3" fill="#161b22"/><rect x="795.0" y="130.5" width="15" height="15" rx="3" fill="#26a641"/><rect x="795.0" y="149.0" width="15" height="15" rx="3" fill="#26a641"/><rect x="795.0" y="167.5" width="15" height="15" rx="3" fill="#006d32"/><rect x="795.0" y="186.0" width="15" height="15" rx="3" fill="#006d32"/><rect x="795.0" y="204.5" width="15" height="15" rx="3" fill="#006d32"/><rect x="795.0" y="223.0" width="15" height="15" rx="3" fill="#0e4429"/>
<rect x="813.5" y="112.0" width="15" height="15" rx="3" fill="#39d353"/><rect x="813.5" y="130.5" width="15" height="15" rx="3" fill="#39d353"/><rect x="813.5" y="149.0" width="15" height="15" rx="3" fill="#26a641"/><rect x="813.5" y="167.5" width="15" height="15" rx="3" fill="#26a641"/><rect x="813.5" y="186.0" width="15" height="15" rx="3" fill="#26a641"/><rect x="813.5" y="204.5" width="15" height="15" rx="3" fill="#39d353"/><rect x="813.5" y="223.0" width="15" height="15" rx="3" fill="#006d32"/>
<rect x="832.0" y="112.0" width="15" height="15" rx="3" fill="#0e4429"/><rect x="832.0" y="130.5" width="15" height="15" rx="3" fill="#006d32"/><rect x="832.0" y="149.0" width="15" height="15" rx="3" fill="#0e4429"/><rect x="832.0" y="167.5" width="15" height="15" rx="3" fill="#0e4429"/><rect x="832.0" y="186.0" width="15" height="15" rx="3" fill="#0e4429"/><rect x="832.0" y="204.5" width="15" height="15" rx="3" fill="#39d353"/><rect x="832.0" y="223.0" width="15" height="15" rx="3" fill="#39d353"/>
<rect x="850.5" y="112.0" width="15" height="15" rx="3" fill="#39d353"/><rect x="850.5" y="130.5" width="15" height="15" rx="3" fill="#006d32"/><rect x="850.5" y="149.0" width="15" height="15" rx="3" fill="#0e4429"/><rect x="850.5" y="167.5" width="15" height="15" rx="3" fill="#26a641"/><rect x="850.5" y="186.0" width="15" height="15" rx="3" fill="#26a641"/><rect x="850.5" y="204.5" width="15" height="15" rx="3" fill="#26a641"/><rect x="850.5" y="223.0" width="15" height="15" rx="3" fill="#0e4429"/>
<rect x="869.0" y="112.0" width="15" height="15" rx="3" fill="#39d353"/><rect x="869.0" y="130.5" width="15" height="15" rx="3" fill="#26a641"/><rect x="869.0" y="149.0" width="15" height="15" rx="3" fill="#39d353"/><rect x="869.0" y="167.5" width="15" height="15" rx="3" fill="#26a641"/><rect x="869.0" y="186.0" width="15" height="15" rx="3" fill="#0e4429"/><rect x="869.0" y="204.5" width="15" height="15" rx="3" fill="#006d32"/><rect x="869.0" y="223.0" width="15" height="15" rx="3" fill="#006d32"/>
<rect x="887.5" y="112.0" width="15" height="15" rx="3" fill="#006d32"/><rect x="887.5" y="130.5" width="15" height="15" rx="3" fill="#006d32"/><rect x="887.5" y="149.0" width="15" height="15" rx="3" fill="#006d32"/><rect x="887.5" y="167.5" width="15" height="15" rx="3" fill="#39d353"/><rect x="887.5" y="186.0" width="15" height="15" rx="3" fill="#39d353"/><rect x="887.5" y="204.5" width="15" height="15" rx="3" fill="#006d32"/><rect x="887.5" y="223.0" width="15" height="15" rx="3" fill="#26a641"/>
<rect x="906.0" y="112.0" width="15" height="15" rx="3" fill="#26a641"/><rect x="906.0" y="130.5" width="15" height="15" rx="3" fill="#39d353"/><rect x="906.0" y="149.0" width="15" height="15" rx="3" fill="#39d353"/><rect x="906.0" y="167.5" width="15" height="15" rx="3" fill="#39d353"/><rect x="906.0" y="186.0" width="15" height="15" rx="3" fill="#39d353"/><rect x="906.0" y="204.5" width="15" height="15" rx="3" fill="#39d353"/><rect x="906.0" y="223.0" width="15" height="15" rx="3" fill="#39d353"/>
<rect x="924.5" y="112.0" width="15" height="15" rx="3" fill="#39d353"/><rect x="924.5" y="130.5" width="15" height="15" rx="3" fill="#006d32"/><rect x="924.5" y="149.0" width="15" height="15" rx="3" fill="#161b22"/><rect x="924.5" y="167.5" width="15" height="15" rx="3" fill="#26a641"/><rect x="924.5" y="186.0" width="15" height="15" rx="3" fill="#006d32"/><rect x="924.5" y="204.5" width="15" height="15" rx="3" fill="#006d32"/><rect x="924.5" y="223.0" width="15" height="15" rx="3" fill="#26a641"/>
<rect x="943.0" y="112.0" width="15" height="15" rx="3" fill="#39d353"/><rect x="943.0" y="130.5" width="15" height="15" rx="3" fill="#0e4429"/><rect x="943.0" y="149.0" width="15" height="15" rx="3" fill="#0e4429"/><rect x="943.0" y="167.5" width="15" height="15" rx="3" fill="#0e4429"/><rect x="943.0" y="186.0" width="15" height="15" rx="3" fill="#39d353"/><rect x="943.0" y="204.5" width="15" height="15" rx="3" fill="#26a641"/><rect x="943.0" y="223.0" width="15" height="15" rx="3" fill="#26a641"/>
<rect x="961.5" y="112.0" width="15" height="15" rx="3" fill="#26a641"/><rect x="961.5" y="130.5" width="15" height="15" rx="3" fill="#006d32"/><rect x="961.5" y="149.0" width="15" height="15" rx="3" fill="#39d353"/><rect x="961.5" y="167.5" width="15" height="15" rx="3" fill="#006d32"/><rect x="961.5" y="186.0" width="15" height="15" rx="3" fill="#26a641"/><rect x="961.5" y="204.5" width="15" height="15" rx="3" fill="#39d353"/><rect x="961.5" y="223.0" width="15" height="15" rx="3" fill="#39d353"/>
<rect x="980.0" y="112.0" width="15" height="15" rx="3" fill="#39d353"/><rect x="980.0" y="130.5" width="15" height="15" rx="3" fill="#0e4429"/><rect x="980.0" y="149.0" width="15" height="15" rx="3" fill="#26a641"/><rect x="980.0" y="167.5" width="15" height="15" rx="3" fill="#39d353"/><rect x="980.0" y="186.0" width="15" height="15" rx="3" fill="#39d353"/><rect x="980.0" y="204.5" width="15" height="15" rx="3" fill="#39d353"/><rect x="980.0" y="223.0" width="15" height="15" rx="3" fill="#26a641"/>
<rect x="998.5" y="112.0" width="15" height="15" rx="3" fill="#39d353"/><rect x="998.5" y="130.5" width="15" height="15" rx="3" fill="#39d353"/><rect x="998.5" y="149.0" width="15" height="15" rx="3" fill="#39d353"/><rect x="998.5" y="167.5" width="15" height="15" rx="3" fill="#006d32"/><rect x="998.5" y="186.0" width="15" height="15" rx="3" fill="#006d32"/><rect x="998.5" y="204.5" width="15" height="15" rx="3" fill="#26a641"/><rect x="998.5" y="223.0" width="15" height="15" rx="3" fill="#26a641"/>
<rect x="1017.0" y="112.0" width="15" height="15" rx="3" fill="#26a641"/><rect x="1017.0" y="130.5" width="15" height="15" rx="3" fill="#39d353"/><rect x="1017.0" y="149.0" width="15" height="15" rx="3" fill="#0e4429"/><rect x="1017.0" y="167.5" width="15" height="15" rx="3" fill="#39d353"/><rect x="1017.0" y="186.0" width="15" height="15" rx="3" fill="#26a641"/><rect x="1017.0" y="204.5" width="15" height="15" rx="3" fill="#26a641"/><rect x="1017.0" y="223.0" width="15" height="15" rx="3" fill="#161b22"/>
<rect x="1035.5" y="112.0" width="15" height="15" rx="3" fill="#006d32"/><rect x="1035.5" y="130.5" width="15" height="15" rx="3" fill="#39d353"/><rect x="1035.5" y="149.0" width="15" height="15" rx="3" fill="#26a641"/><rect x="1035.5" y="167.5" width="15" height="15" rx="3" fill="#26a641"/><rect x="1035.5" y="186.0" width="15" height="15" rx="3" fill="#0e4429"/><rect x="1035.5" y="204.5" width="15" height="15" rx="3" fill="#006d32"/><rect x="1035.5" y="223.0" width="15" height="15" rx="3" fill="#161b22"/>
<rect x="1054.0" y="112.0" width="15" height="15" rx="3" fill="#006d32"/><rect x="1054.0" y="130.5" width="15" height="15" rx="3" fill="#0e4429"/><rect x="1054.0" y="149.0" width="15" height="15" rx="3" fill="#006d32"/><rect x="1054.0" y="167.5" width="15" height="15" rx="3" fill="#39d353"/><rect x="1054.0" y="186.0" width="15" height="15" rx="3" fill="#006d32"/><rect x="1054.0" y="204.5" width="15" height="15" rx="3" fill="#006d32"/><rect x="1054.0" y="223.0" width="15" height="15" rx="3" fill="#006d32"/>
<rect x="1072.5" y="112.0" width="15" height="15" rx="3" fill="#006d32"/><rect x="1072.5" y="130.5" width="15" height="15" rx="3" fill="#006d32"/><rect x="1072.5" y="149.0" width="15" height="15" rx="3" fill="#161b22"/><rect x="1072.5" y="167.5" width="15" height="15" rx="3" fill="#161b22"/><rect x="1072.5" y="186.0" width="15" height="15" rx="3" fill="#161b22"/><rect x="1072.5" y="204.5" width="15" height="15" rx="3" fill="#161b22"/><rect x="1072.5" y="223.0" width="15" height="15" rx="3" fill="#161b22"/>
<rect x="1091.0" y="112.0" width="15" height="15" rx="3" fill="#161b22"/><rect x="1091.0" y="130.5" width="15" height="15" rx="3" fill="#161b22"/><rect x="1091.0" y="149.0" width="15" height="15" rx="3" fill="#161b22"/><rect x="1091.0" y="167.5" width="15" height="15" rx="3" fill="#161b22"/><rect x="1091.0" y="186.0" width="15" height="15" rx="3" fill="#161b22"/><rect x="1091.0" y="204.5" width="15" height="15" rx="3" fill="#161b22"/><rect x="1091.0" y="223.0" width="15" height="15" rx="3" fill="#161b22"/>
<rect x="1109.5" y="112.0" width="15" height="15" rx="3" fill="#161b22"/><rect x="1109.5" y="130.5" width="15" height="15" rx="3" fill="#161b22"/><rect x="1109.5" y="149.0" width="15" height="15" rx="3" fill="#006d32"/><rect x="1109.5" y="167.5" width="15" height="15" rx="3" fill="#161b22"/><rect x="1109.5" y="186.0" width="15" height="15" rx="3" fill="#161b22"/><rect x="1109.5" y="204.5" width="15" height="15" rx="3" fill="#161b22"/><rect x="1109.5" y="223.0" width="15" height="15" rx="3" fill="#161b22"/>
<rect x="1128.0" y="112.0" width="15" height="15" rx="3" fill="#161b22"/><rect x="1128.0" y="130.5" width="15" height="15" rx="3" fill="#161b22"/><rect x="1128.0" y="149.0" width="15" height="15" rx="3" fill="#161b22"/><rect x="1128.0" y="167.5" width="15" height="15" rx="3" fill="#161b22"/><rect x="1128.0" y="186.0" width="15" height="15" rx="3" fill="#0e4429"/><rect x="1128.0" y="204.5" width="15" height="15" rx="3" fill="#26a641"/>
<text x="1011.0" y="268" class="axis" text-anchor="end">Less</text>
<rect x="1019.0" y="258" width="12" height="12" rx="2.5" fill="#161b22"/><rect x="1035.0" y="258" width="12" height="12" rx="2.5" fill="#0e4429"/><rect x="1051.0" y="258" width="12" height="12" rx="2.5" fill="#006d32"/><rect x="1067.0" y="258" width="12" height="12" rx="2.5" fill="#26a641"/><rect x="1083.0" y="258" width="12" height="12" rx="2.5" fill="#39d353"/>
<text x="1103.0" y="268" class="axis">More</text>
<text x="132" y="294" class="caption">3,016 contributions across 161 active days · Counted by the GitHub API on 2026-09-11, nothing estimated</text>
</svg>
